<?xml version="1.0" encoding="UTF-8" standalone="no"?>
<svg
   xmlns:dc="http://purl.org/dc/elements/1.1/"
   xmlns:cc="http://creativecommons.org/ns#"
   xmlns:rdf="http://www.w3.org/1999/02/22-rdf-syntax-ns#"
   xmlns:svg="http://www.w3.org/2000/svg"
   xmlns="http://www.w3.org/2000/svg"
   xmlns:sodipodi="http://sodipodi.sourceforge.net/DTD/sodipodi-0.dtd"
   xmlns:inkscape="http://www.inkscape.org/namespaces/inkscape"
   sodipodi:docname="fourway_road_tile.svg"
   inkscape:version="1.0 (4035a4fb49, 2020-05-01)"
   id="svg157"
   version="1.1"
   viewBox="0 0 52.916665 79.375002"
   height="300"
   width="200">
  <defs
     id="defs151" />
  <sodipodi:namedview
     units="px"
     inkscape:window-maximized="1"
     inkscape:window-y="-8"
     inkscape:window-x="-8"
     inkscape:window-height="1057"
     inkscape:window-width="1920"
     showgrid="false"
     inkscape:document-rotation="0"
     inkscape:current-layer="layer1"
     inkscape:document-units="px"
     inkscape:cy="255.00462"
     inkscape:cx="190.67037"
     inkscape:zoom="1.979899"
     inkscape:pageshadow="2"
     inkscape:pageopacity="0.0"
     borderopacity="1.0"
     bordercolor="#666666"
     pagecolor="#ffffff"
     id="base" />
  <metadata
     id="metadata154">
    <rdf:RDF>
      <cc:Work
         rdf:about="">
        <dc:format>image/svg+xml</dc:format>
        <dc:type
           rdf:resource="http://purl.org/dc/dcmitype/StillImage" />
        <dc:title></dc:title>
      </cc:Work>
    </rdf:RDF>
  </metadata>
  <g
     id="layer1"
     inkscape:groupmode="layer"
     inkscape:label="Layer 1">
    <polygon
       transform="matrix(-0.2638438,0,0,0.26384531,148.65495,-7.6436634)"
       style="fill:#32cd32;stroke:#231f20;stroke-width:0.2507px;stroke-miterlimit:10"
       class="cls-6"
       points="563.14,279.67 463.14,229.67 363.14,279.67 463.14,329.67 "
       id="polygon60" />
    <path
       transform="scale(0.26458333)"
       d="M 90.021484 205.12891 L 10.201172 245.03906 L 20.177734 250.02734 L 10.201172 255.01562 L 90.021484 294.92578 L 100 289.9375 L 109.97852 294.92578 L 189.79883 255.01562 L 179.82227 250.02734 L 189.79883 245.03906 L 109.97852 205.12891 L 100 210.11719 L 90.021484 205.12891 z "
       style="fill:#a9a9a9;stroke:#231f20;stroke-width:0.25;stroke-miterlimit:10;stroke-dasharray:none"
       id="polygon120" />
    <rect
       y="58.331573"
       x="49.77895"
       height="7.8510423"
       width="0.43431297"
       id="rect32"
       style="fill:#d3d3d3;stroke-width:3.49999;paint-order:fill markers stroke" />
    <path
       sodipodi:nodetypes="ccccccc"
       d="m 50.840871,59.052181 -1.589822,0.860922 -0.881004,-0.964266 0.881004,-2.087619 1.589822,-0.860922 0.881003,0.964265 z"
       style="fill:#ff0000;stroke-width:3.49999;paint-order:fill markers stroke"
       id="path29" />
    <path
       id="path29-2"
       style="fill:#ff0000;stroke-width:3.49999;paint-order:fill markers stroke"
       d="M 3.233833,59.004135 1.644011,59.865057 0.76300701,58.900791 1.644011,56.813172 3.233833,55.95225 4.114836,56.916515 Z"
       sodipodi:nodetypes="ccccccc" />
    <rect
       style="fill:#d3d3d3;stroke-width:3.49998;paint-order:fill markers stroke"
       id="rect32-3"
       width="0.43431297"
       height="9.3085384"
       x="2.431766"
       y="56.7906" />
    <rect
       transform="scale(-1,1)"
       style="fill:#d3d3d3;stroke-width:3.49999;paint-order:fill markers stroke"
       id="rect32-34"
       width="0.43431297"
       height="7.8510423"
       x="-26.65641"
       y="70.246941" />
    <path
       id="path29-7"
       style="fill:#ff0000;stroke-width:3.49999;paint-order:fill markers stroke"
       d="m 25.594488,70.967549 1.589822,0.860921 0.881004,-0.964266 -0.881004,-2.087619 -1.589822,-0.860922 -0.881003,0.964265 z"
       sodipodi:nodetypes="ccccccc" />
    <path
       sodipodi:nodetypes="ccccccc"
       d="m 25.854343,47.190467 1.589822,0.860922 0.881004,-0.964266 -0.881004,-2.087619 -1.589822,-0.860922 -0.881003,0.964265 z"
       style="fill:#ff0000;stroke-width:3.49999;paint-order:fill markers stroke"
       id="path29-2-6" />
    <rect
       transform="scale(-1,1)"
       y="44.976921"
       x="-26.65641"
       height="9.3085384"
       width="0.43431297"
       id="rect32-3-5"
       style="fill:#d3d3d3;stroke-width:3.49999;paint-order:fill markers stroke" />
  </g>
</svg>
