<?xml version="1.0" encoding="UTF-8" standalone="no"?>
<svg
   sodipodi:docname="house2_tile.svg"
   inkscape:version="1.1.2 (b8e25be833, 2022-02-05)"
   id="svg157"
   version="1.1"
   viewBox="0 0 52.916665 79.375002"
   height="300"
   width="200"
   inkscape:export-filename="C:\Github\pop-neighborhood\tiles\29_house2_tile.png"
   inkscape:export-xdpi="96"
   inkscape:export-ydpi="96"
   xmlns:inkscape="http://www.inkscape.org/namespaces/inkscape"
   xmlns:sodipodi="http://sodipodi.sourceforge.net/DTD/sodipodi-0.dtd"
   xmlns="http://www.w3.org/2000/svg"
   xmlns:svg="http://www.w3.org/2000/svg"
   xmlns:rdf="http://www.w3.org/1999/02/22-rdf-syntax-ns#"
   xmlns:cc="http://creativecommons.org/ns#"
   xmlns:dc="http://purl.org/dc/elements/1.1/">
  <defs
     id="defs151" />
  <sodipodi:namedview
     units="px"
     inkscape:window-maximized="1"
     inkscape:window-y="-6"
     inkscape:window-x="-6"
     inkscape:window-height="890"
     inkscape:window-width="1368"
     showgrid="false"
     inkscape:document-rotation="0"
     inkscape:current-layer="layer1"
     inkscape:document-units="px"
     inkscape:cy="257.85714"
     inkscape:cx="199.28571"
     inkscape:zoom="0.7"
     inkscape:pageshadow="2"
     inkscape:pageopacity="0.0"
     borderopacity="1.0"
     bordercolor="#666666"
     pagecolor="#ffffff"
     id="base"
     inkscape:pagecheckerboard="0" />
  <metadata
     id="metadata154">
    <rdf:RDF>
      <cc:Work
         rdf:about="">
        <dc:format>image/svg+xml</dc:format>
        <dc:type
           rdf:resource="http://purl.org/dc/dcmitype/StillImage" />
        <dc:title />
      </cc:Work>
    </rdf:RDF>
  </metadata>
  <g
     id="layer1"
     inkscape:groupmode="layer"
     inkscape:label="Layer 1">
    <g
       id="g1088"
       transform="translate(-79.375)">
      <polygon
         id="polygon60-4"
         points="363.14,279.67 463.14,329.67 563.14,279.67 463.14,229.67 "
         class="cls-6"
         style="fill:#32cd32;stroke:none;stroke-width:0.2507px;stroke-miterlimit:10"
         transform="matrix(0.2638438,0,0,-0.26384531,-175.26132,139.93557)" />
      <polygon
         id="polygon52"
         points="733.14,279.67 733.14,199.67 698.14,177.17 663.14,234.67 663.14,314.67 "
         class="cls-4"
         style="fill:#d43300;fill-opacity:1;stroke-width:1.0028"
         transform="matrix(0.2638438,0,0,0.26384531,-228.03008,-7.6436634)" />
      <polygon
         id="polygon54"
         points="698.14,177.17 628.14,142.17 593.14,199.67 663.14,234.67 "
         class="cls-9"
         style="fill:#fbb040;stroke-width:1.0028"
         transform="matrix(0.2638438,0,0,0.26384531,-228.03008,-7.6436634)" />
      <polygon
         id="polygon56"
         points="593.14,279.67 663.14,314.67 663.14,234.67 593.14,199.67 "
         class="cls-3"
         style="fill:#f7941d;stroke-width:1.0028"
         transform="matrix(0.2638438,0,0,0.26384531,-228.03008,-7.6436634)" />
    </g>
    <g
       id="g1082"
       transform="translate(-79.375)">
      <polygon
         id="polygon60-4-1"
         points="363.14,279.67 463.14,329.67 563.14,279.67 463.14,229.67 "
         class="cls-6"
         style="fill:#32cd32;stroke:none;stroke-width:0.2507px;stroke-miterlimit:10"
         transform="matrix(0.2638438,0,0,-0.26384531,-95.886191,139.93557)" />
      <polygon
         id="polygon52-0"
         points="663.14,234.67 663.14,314.67 733.14,279.67 733.14,199.67 698.14,177.17 "
         class="cls-4"
         style="fill:#806600;fill-opacity:1;stroke-width:1.0028"
         transform="matrix(0.2638438,0,0,0.26384531,-148.65495,-7.6436628)" />
      <polygon
         id="polygon54-8"
         points="698.14,177.17 628.14,142.17 593.14,199.67 663.14,234.67 "
         class="cls-9"
         style="fill:#ffe680;stroke-width:1.0028"
         transform="matrix(0.2638438,0,0,0.26384531,-148.65495,-7.6436628)" />
      <polygon
         id="polygon56-1"
         points="593.14,279.67 663.14,314.67 663.14,234.67 593.14,199.67 "
         class="cls-3"
         style="fill:#ffcc00;fill-opacity:1;stroke-width:1.0028"
         transform="matrix(0.2638438,0,0,0.26384531,-148.65495,-7.6436628)" />
    </g>
    <g
       id="g1369">
      <polygon
         id="polygon60-4-1-2"
         points="363.14,279.67 463.14,329.67 563.14,279.67 463.14,229.67 "
         class="cls-6"
         style="fill:#32cd32;stroke:none;stroke-width:0.2507px;stroke-miterlimit:10"
         transform="matrix(0.2638438,0,0,-0.26384531,-95.738419,139.93557)" />
      <polygon
         id="polygon52-0-8"
         points="733.14,199.67 698.14,177.17 663.14,234.67 663.14,314.67 733.14,279.67 "
         class="cls-4"
         style="fill:#8e0048;fill-opacity:1;stroke-width:1.0028"
         transform="matrix(0.2638438,0,0,0.26384531,-148.50718,-7.6436628)" />
      <polygon
         id="polygon54-8-0"
         points="698.14,177.17 628.14,142.17 593.14,199.67 663.14,234.67 "
         class="cls-9"
         style="fill:#ff7f65;fill-opacity:1;stroke-width:1.0028"
         transform="matrix(0.2638438,0,0,0.26384531,-148.50718,-7.6436628)" />
      <polygon
         id="polygon56-1-0"
         points="593.14,279.67 663.14,314.67 663.14,234.67 593.14,199.67 "
         class="cls-3"
         style="fill:#f71d1d;fill-opacity:1;stroke-width:1.0028"
         transform="matrix(0.2638438,0,0,0.26384531,-148.50718,-7.6436628)" />
    </g>
  </g>
</svg>
