<?xml version="1.0" encoding="UTF-8" standalone="no"?>
<svg
   sodipodi:docname="t_road_1_tile.svg"
   inkscape:version="1.1.2 (b8e25be833, 2022-02-05)"
   id="svg157"
   version="1.1"
   viewBox="0 0 52.916665 79.375002"
   height="300"
   width="200"
   inkscape:export-filename="C:\Github\pop-neighborhood\tiles\12_t_road_3_tile.png"
   inkscape:export-xdpi="96"
   inkscape:export-ydpi="96"
   xmlns:inkscape="http://www.inkscape.org/namespaces/inkscape"
   xmlns:sodipodi="http://sodipodi.sourceforge.net/DTD/sodipodi-0.dtd"
   xmlns="http://www.w3.org/2000/svg"
   xmlns:svg="http://www.w3.org/2000/svg"
   xmlns:rdf="http://www.w3.org/1999/02/22-rdf-syntax-ns#"
   xmlns:cc="http://creativecommons.org/ns#"
   xmlns:dc="http://purl.org/dc/elements/1.1/">
  <defs
     id="defs151" />
  <sodipodi:namedview
     units="px"
     inkscape:window-maximized="1"
     inkscape:window-y="-6"
     inkscape:window-x="-6"
     inkscape:window-height="890"
     inkscape:window-width="1368"
     showgrid="false"
     inkscape:document-rotation="0"
     inkscape:current-layer="layer1"
     inkscape:document-units="px"
     inkscape:cy="296.42857"
     inkscape:cx="173.57143"
     inkscape:zoom="0.70000001"
     inkscape:pageshadow="2"
     inkscape:pageopacity="0.0"
     borderopacity="1.0"
     bordercolor="#666666"
     pagecolor="#ffffff"
     id="base"
     inkscape:pagecheckerboard="0" />
  <metadata
     id="metadata154">
    <rdf:RDF>
      <cc:Work
         rdf:about="">
        <dc:format>image/svg+xml</dc:format>
        <dc:type
           rdf:resource="http://purl.org/dc/dcmitype/StillImage" />
        <dc:title />
      </cc:Work>
    </rdf:RDF>
  </metadata>
  <g
     id="layer1"
     inkscape:groupmode="layer"
     inkscape:label="Layer 1">
    <g
       id="g3815"
       transform="translate(-79.523036,52.91667)">
      <polygon
         transform="matrix(-0.2638438,0,0,0.26384531,148.65495,-7.6436634)"
         style="fill:#32cd32;stroke:none;stroke-width:0.2507px;stroke-miterlimit:10;stroke-opacity:1"
         class="cls-6"
         points="463.14,229.67 363.14,279.67 463.14,329.67 563.14,279.67 "
         id="polygon60-8" />
      <path
         id="polygon120-4"
         style="fill:#a9a9a9;stroke:none;stroke-width:0.25;stroke-miterlimit:10;stroke-dasharray:none"
         class="cls-10"
         d="m 90.021484,205.12891 -79.820312,39.91015 9.976562,4.98828 -9.976562,4.98828 79.820312,39.91016 L 189.79883,245.03906 109.97656,205.12891 100,210.11719 Z"
         transform="scale(0.26458333)" />
      <path
         id="path29-2"
         style="fill:#ff0000;stroke-width:3.49999;paint-order:fill markers stroke"
         d="M 3.233833,59.004135 1.644011,59.865057 0.76300701,58.900791 1.644011,56.813172 3.233833,55.95225 4.114836,56.916515 Z"
         sodipodi:nodetypes="ccccccc" />
      <rect
         style="fill:#d3d3d3;stroke-width:3.49998;paint-order:fill markers stroke"
         id="rect32-3"
         width="0.43431297"
         height="9.3085384"
         x="2.431766"
         y="56.7906" />
    </g>
    <g
       id="g3809"
       transform="translate(-79.523036,52.91667)">
      <polygon
         transform="matrix(-0.2638438,0,0,0.26384531,228.03008,-7.6436636)"
         style="fill:#32cd32;stroke:none;stroke-width:0.2507px;stroke-miterlimit:10;stroke-opacity:1"
         class="cls-6"
         points="463.14,229.67 363.14,279.67 463.14,329.67 563.14,279.67 "
         id="polygon60-8-8" />
      <path
         id="polygon120-4-2-1"
         style="fill:#a9a9a9;stroke:none;stroke-width:0.25;stroke-miterlimit:10;stroke-dasharray:none"
         class="cls-10"
         d="m 390.02148,205.12891 -79.82031,39.91015 99.77539,49.88672 79.82227,-39.91016 -9.97656,-4.98828 9.97656,-4.98828 L 409.97656,205.12891 400,210.11719 Z"
         transform="scale(0.26458333)" />
      <path
         sodipodi:nodetypes="ccccccc"
         d="m 105.22947,47.190467 1.58983,0.860922 0.881,-0.964266 -0.881,-2.087619 -1.58983,-0.860922 -0.881,0.964265 z"
         style="fill:#ff0000;stroke-width:3.49999;paint-order:fill markers stroke"
         id="path29-2-6-1" />
      <rect
         transform="scale(-1,1)"
         y="44.976921"
         x="-106.03154"
         height="9.3085384"
         width="0.43431297"
         id="rect32-3-5-4"
         style="fill:#d3d3d3;stroke-width:3.49999;paint-order:fill markers stroke" />
    </g>
    <g
       id="g3797"
       transform="translate(-79.523036,-52.916666)">
      <polygon
         transform="matrix(-0.2638438,0,0,0.26384531,148.65495,45.273007)"
         style="fill:#32cd32;stroke:none;stroke-width:0.2507px;stroke-miterlimit:10;stroke-opacity:1"
         class="cls-6"
         points="463.14,229.67 363.14,279.67 463.14,329.67 563.14,279.67 "
         id="polygon60-8-5" />
      <path
         id="polygon120-4-2-2"
         style="fill:#a9a9a9;stroke:none;stroke-width:0.25;stroke-miterlimit:10;stroke-dasharray:none"
         class="cls-10"
         d="m 90.021484,405.12891 -79.820312,39.91015 9.976562,4.98828 -9.976562,4.98828 79.820312,39.91016 L 100,489.9375 l 9.97656,4.98828 79.82227,-39.91016 z"
         transform="scale(0.26458333)" />
      <rect
         transform="scale(-1,1)"
         style="fill:#d3d3d3;stroke-width:3.49999;paint-order:fill markers stroke"
         id="rect32-34-8"
         width="0.43431297"
         height="7.8510423"
         x="-26.65641"
         y="123.16361" />
      <path
         id="path29-7-5"
         style="fill:#ff0000;stroke-width:3.49999;paint-order:fill markers stroke"
         d="m 25.594488,123.88422 1.589822,0.86092 0.881004,-0.96427 -0.881004,-2.08762 -1.589822,-0.86092 -0.881003,0.96427 z"
         sodipodi:nodetypes="ccccccc" />
    </g>
    <g
       id="g3803"
       transform="translate(-79.523036,-52.916666)">
      <polygon
         transform="matrix(-0.2638438,0,0,0.26384531,228.03008,45.273006)"
         style="fill:#32cd32;stroke:none;stroke-width:0.2507px;stroke-miterlimit:10;stroke-opacity:1"
         class="cls-6"
         points="463.14,229.67 363.14,279.67 463.14,329.67 563.14,279.67 "
         id="polygon60-8-8-0" />
      <path
         id="polygon120-4-2"
         style="fill:#a9a9a9;stroke:none;stroke-width:0.25;stroke-miterlimit:10;stroke-dasharray:none"
         class="cls-10"
         d="m 409.97656,405.12891 -99.77539,49.88671 79.82031,39.91016 9.97852,-4.98828 9.97656,4.98828 79.82227,-39.91016 -9.97656,-4.98828 9.97656,-4.98828 z"
         transform="scale(0.26458333)" />
      <rect
         y="111.24825"
         x="129.15408"
         height="7.8510423"
         width="0.43431297"
         id="rect32-8-7"
         style="fill:#d3d3d3;stroke-width:3.49999;paint-order:fill markers stroke" />
      <path
         sodipodi:nodetypes="ccccccc"
         d="m 130.216,111.96885 -1.58982,0.86092 -0.881,-0.96426 0.881,-2.08762 1.58982,-0.86092 0.881,0.96426 z"
         style="fill:#ff0000;stroke-width:3.49999;paint-order:fill markers stroke"
         id="path29-29-4" />
    </g>
  </g>
</svg>
